# xmcd
#
# Track frame offsets:
#	150
#	17389
#	34517
#	49483
#	63306
#	77099
#	91892
#	102914
#	116522
#	129518
#	147079
#	161878
#	177846
#	194136
#	209729
#	224730
#	241569
#	253059
#
# Disc length: 3605 seconds
#
# Revision: 1
# Processed by: cddbd v1.5.2PL0 Copyright (c) Steve Scherf et al.
# Submitted via: audiograbber 1.82.02
#
DISCID=050e1312
DTITLE=Various Artist  - Country Radio - October 2015
DYEAR=2015
DGENRE=Country
TTITLE0=Band Perry - Live Forever
TTITLE1=Tim McGraw - Top Of The World
TTITLE2=Rachele Lynae - Quicksand
TTITLE3=Reba McEntire - Until They Don't Love You
TTITLE4=Kayla Calabrese - Give
TTITLE5=Scotty McCreery - Southern Belle
TTITLE6=Denny Strickland - How Far You Wanna Go
TTITLE7=Blake Shelton - Gonna
TTITLE8=Tyler Farr - Better In Boots
TTITLE9=Homegrown Band - She Loves To Ride
TTITLE10=Ronnie Dunn - Ain't No Trucks In Texas
TTITLE11=Kacey Musgraves - Dime Store Cowgirl
TTITLE12=Emerson Drive - Till The Summer's Gone
TTITLE13=Cassadee Pope - I Am Invincible
TTITLE14=William Michael Morgan - I Met A Girl
TTITLE15=Jason Aldean - Gonna Know We Were Here
TTITLE16=Canaan Smith - Hole In A Bottle
TTITLE17=Cool Connie and St. Ice - Whiskey Bottle Cry
EXTD=
EXTT0=
EXTT1=
EXTT2=
EXTT3=
EXTT4=
EXTT5=
EXTT6=
EXTT7=
EXTT8=
EXTT9=
EXTT10=
EXTT11=
EXTT12=
EXTT13=
EXTT14=
EXTT15=
EXTT16=
EXTT17=
PLAYORDER=
